<svg xmlns="http://www.w3.org/2000/svg" data-name="Layer 1" width="479" height="515"><rect id="backgroundrect" width="100%" height="100%" x="0" y="0" fill="none" stroke="none" class="" style=""/><g class="currentLayer" style=""><title>Layer 1</title><path d="M328.60318188964845,446.2994218310547 c-5.12158,-7.17175 -12.05469,-12.41919 -20.771,-14.38311 c-7.60058,-1.71259 -15.416,-1.42072 -23.14209,-1.36115 l-97.69238,0.7533000000000002 c-8.3667,0.06451000000000003 -16.38867,7.31311 -16,16 c0.38574,8.61358 7.03174,16.06915 16,16 q42.92578,-0.3310000000000001 85.85108,-0.6620000000000003 c6.74658,-0.05200000000000002 13.49707,-0.17371000000000006 20.24414,-0.15155000000000005 c1.51513,0.004940000000000003 3.02392,0.08484000000000003 4.53759,0.10200000000000002 c0.3667,0.004150000000000002 0.6313500000000002,0.0009100000000000007 0.81836,-0.007000000000000004 c0.04688000000000002,0.014280000000000006 0.08643000000000003,0.027340000000000014 0.14746000000000006,0.04407000000000002 c0.7895599999999998,0.21679000000000007 1.5996100000000002,0.3662100000000001 2.394,0.5721400000000002 c-0.2783200000000001,0.008300000000000004 0.51513,0.5033 0.91357,0.6710000000000004 c0.05469000000000003,0.10800000000000003 0.17139000000000001,0.2993800000000002 0.3662100000000001,0.5951500000000002 c0.272,0.51 1.07715,2.05866 1.11035,2.00989 a71.76183,71.76183 0 0 1 2.98682,9.39289 c1.85938,7.04718 2.26807,8.52026 2.53565,15.13195 c0.3383700000000002,8.352 7.11718,16.39783 16,16 c8.3789,-0.3753000000000002 16.36279,-7.04236 16,-16 C340.2916618896485,475.91283183105463 337.6422418896484,458.9573818310547 328.60318188964845,446.2994218310547 z" fill="#e6e6e6" id="svg_1" class=""/><path d="M192.74039188964844,482.40494183105466 c-1.835,-11.11963 -3.63477,-22.24637 -5.50537,-33.35952 c-1.8980000000000001,-11.27417 -5.77442,-21.59812 -14.54786,-28.9975 c-2.34423,-1.97688 -4.7749,-3.82268 -7.21582,-5.6627600000000005 c-0.8583900000000002,-0.6468000000000004 -1.71533,-1.2945600000000002 -2.56347,-1.95566 c-0.05078000000000001,-0.03952000000000001 -0.08300000000000003,-0.06430000000000002 -0.127,-0.09861000000000006 c-0.09326000000000008,-0.08020000000000004 -0.20507,-0.17551000000000005 -0.3554600000000001,-0.3027200000000001 c-3.65674,-3.0948 -7.19,-6.32723 -10.55567,-9.76318 q-4.48315,-4.57729 -8.57471,-9.545 q-1.02246,-1.24071 -2.01855,-2.50366 c-0.11426000000000006,-0.14481000000000005 -0.7294900000000002,-0.9399200000000002 -1.13477,-1.45875 c-0.3770000000000001,-0.51927 -1.06591,-1.457 -1.18164,-1.62073 q-1.1638,-1.64569 -2.28613,-3.322 a156.12618,156.12618 0 0 1 -13.187,-24.11549 q-0.54713,-1.25119 -1.06836,-2.51707 c-0.09326000000000008,-0.25754 -0.21387,-0.5883400000000002 -0.3740000000000001,-1.02876 c-0.74121,-2.03833 -1.481,-4.07418 -2.15869,-6.13665 q-2.15992,-6.57108 -3.71387,-13.3362 q-0.7683200000000002,-3.34049 -1.3833000000000002,-6.7149 q-0.3171500000000001,-1.73529 -0.59326,-3.47777 c-0.03028000000000001,-0.19285000000000005 -0.21000000000000005,-1.44617 -0.3159200000000002,-2.15436 c-0.07813000000000003,-0.7116200000000003 -0.22364000000000006,-1.97155 -0.24317,-2.16618 q-0.17577,-1.7564600000000001 -0.3120000000000001,-3.51634 q-0.3068800000000002,-3.96012 -0.4150000000000001,-7.93346 q-0.18456000000000006,-7.06137 0.25293,-14.12171 c0.16600000000000006,-2.64466 0.4023500000000001,-5.28245 0.6933600000000002,-7.91529 c0.01758000000000001,-0.16178000000000006 0.031250000000000014,-0.2904600000000001 0.04395000000000002,-0.4064200000000001 c0.01758000000000001,-0.11756000000000005 0.03808,-0.25112 0.06250000000000003,-0.4173500000000001 c0.21533000000000005,-1.455 0.4418900000000001,-2.908 0.6953100000000002,-4.35644 a159.29393,159.29393 0 0 1 3.73926,-16.31344 q1.08765,-3.80858 2.36279,-7.5553799999999995 q0.56836,-1.6632500000000001 1.17285,-3.31377 c-0.026370000000000015,0.07100000000000002 1.18213,-3.01574 1.19824,-3.11945 c4.79493,-11.32906 12.6377,-21.657 12.64844,-34.52643 c0.007330000000000002,-8.71332 -7.36426,-17.06006 -16,-16.65739 a16.62541,16.62541 0 0 0 -16,16.65739 c0,0.19565000000000005 -0.0010000000000000005,0.3625800000000001 -0.0014600000000000008,0.52461 c-0.08057000000000003,0.27127 -0.14795000000000005,0.4976100000000001 -0.20850000000000005,0.6977700000000004 c-0.93506,2.032 -2.08057,3.96285 -3.10693,5.94438 c-2.81055,5.42345 -5.20948,11.02482 -7.48828,16.70842 a159.82519,159.82519 0 0 0 -8.5293,28.62825 a182.098,182.098 0 0 0 -0.9677700000000002,65.04019 c6.20361,37.8128 26.66162,74.009 55.103,98.33928 c2.46826,2.11134 4.99658,4.1517100000000005 7.54883,6.15089 c1.05615,0.8271400000000002 2.12109,1.6390900000000004 3.19141,2.44577 c0.50586,0.3813900000000001 2.60156,2.034 1.6796800000000005,1.23331 c1.98243,1.6918300000000004 2.8169,2.5433 3.32618,3.78944 c0.07373000000000003,0.2876 0.17431000000000005,0.6776200000000004 0.3105400000000001,1.21088 c0.3588900000000001,1.40538 0.6997100000000004,2.8075099999999997 0.98291,4.23259 c2.47559,12.45143 4.19629,25.11159 6.26416,37.64359 c1.4213900000000002,8.61064 12.022,14.21487 19.68213,11.6342 C190.48156188964845,499.8915118310547 194.26334188964847,491.6311918310547 192.74039188964844,482.40494183105466 z" fill="#e6e6e6" id="svg_2" class=""/><path d="M330.22156188964846,514.7001218310547 a25.37427,25.37427 0 0 1 -25.43994,-25.25 V471.1986518310547 c-19.10889,2.13916 -84.54321,1.64356 -103.29981,-1.37011 v18.8916 a25.4409,25.4409 0 0 1 -50.88037,0 v-37.0918 a163.30721,163.30721 0 0 1 -84,-142.38818 c0,-49.83008 22.583,-96.31446 61.95874,-127.5337 a164.07476,164.07476 0 0 1 89.32251,-35.17333 c4.427,-0.3471700000000002 8.88086,-0.52295 13.23877,-0.52295 c15.3523,0 84.61866,2.3715800000000002 101.99781,7.37158 L372.74718188964846,114.0600018310547 a4.16,4.16 0 0 1 4.55,-0.9067400000000002 a4.10044,4.10044 0 0 1 2.58448,3.84668 v6.252 l7.71631,-7.6420900000000005 a4.1505,4.1505 0 0 1 4.54638,-0.90821 a4.10219,4.10219 0 0 1 2.5874,3.84815 v69.86474 a162.75915,162.75915 0 0 1 -39.07031,267.86621 v33.16944 A25.37427,25.37427 0 0 1 330.22156188964846,514.7001218310547 zM306.7815618896484,468.9305918310547 v20.51953 a23.44072,23.44072 0 0 0 46.87988,0 V455.0175018310547 l0.5710000000000002,-0.271 a162.45628,162.45628 0 0 0 66.53076,-58.18164 a160.32526,160.32526 0 0 0 -27.69922,-206.96 l-0.3322800000000002,-0.2983400000000001 V118.54973183105471 a2.10314,2.10314 0 0 0 -1.34179,-1.99561 a2.1492,2.1492 0 0 0 -2.3813500000000003,0.47315 l-11.127,11.0205 V116.99992183105468 a2.10314,2.10314 0 0 0 -1.3418,-1.9956 a2.15435,2.15435 0 0 0 -2.38525,0.4765600000000001 l-40.47632,40.16357 l-0.5752,-0.18017 c-16.156,-5.05664 -86.51269,-7.4541 -101.98169,-7.4541 c-4.30591,0 -8.70727,0.17382 -13.08154,0.51709 a162.07488,162.07488 0 0 0 -88.23682,34.74609 c-38.89453,30.83789 -61.20166,76.751 -61.20166,125.9668 A161.31464,161.31464 0 0 0 152.08556188964843,450.1650018310547 l0.51587,0.28565 v38.26953 a23.441,23.441 0 0 0 46.88037,0 V467.43449183105474 l1.18482,0.22266000000000005 c16.85571,3.17139 87.83179,3.67139 104.98486,1.4213900000000002 z" fill="#3f3d56" id="svg_3" class=""/><path d="M258.7815618896484,0.0000018310546749944479 a70.03128,70.03128 0 0 0 -69.97022,67.85 c-0.020000000000000007,0.7100000000000002 -0.029780000000000008,1.4300000000000002 -0.029780000000000008,2.15 a70,70 0 1 0 70,-70 zm0,138 a68.071,68.071 0 0 1 -68,-68 q0,-1.395 0.060060000000000016,-2.7600000000000002 A67.998,67.998 0 1 1 258.7815618896484,138.0000018310547 z" fill="#3f3d56" id="svg_6" class=""/><path d="M317.7815618896484,70.0000018310547 a59,59 0 0 1 -118,0 c0,-1.87 0.08984000000000003,-3.71 0.25976,-5.53 A59,59 0 0 1 317.7815618896484,70.0000018310547 z" fill="#e6e6e6" id="svg_7" class=""/><path d="M276.35142188964846,73.92000183105466 a14.04753,14.04753 0 0 0 -5.46972,-4.33 a53.13872,53.13872 0 0 0 -8.22022,-2.7 V50.83000183105469 a23.39587,23.39587 0 0 1 11.68994,5.33 l3.26026,-6.95 a21.56068,21.56068 0 0 0 -6.36035,-3.93 a31.25931,31.25931 0 0 0 -8.06983,-2.07 v-8.14 h-7.5498 v8.22 a20.67243,20.67243 0 0 0 -8.25,2.77 a16.3988,16.3988 0 0 0 -5.59034,5.48 a13.77113,13.77113 0 0 0 -1.98974,7.29 a12.46275,12.46275 0 0 0 2.29,7.8 a14.51022,14.51022 0 0 0 5.6997,4.52 a52.69206,52.69206 0 0 0 8.36036,2.77 v15.39 A24.98812,24.98812 0 0 1 242.24156188964844,83.7600018310547 l-3.25977,6.96 a24.58042,24.58042 0 0 0 7.43995,4.22 a34.16142,34.16142 0 0 0 9.21,1.92 v8.07 h7.5498 v-8.22 a19.5385,19.5385 0 0 0 11.21,-5.14 a13.58959,13.58959 0 0 0 4.18018,-10.1 A12.0549,12.0549 0 0 0 276.35142188964846,73.92000183105466 zm-20.1997,-8.73 a14.49857,14.49857 0 0 1 -5.03028,-2.7 a5.32046,5.32046 0 0 1 -1.7797800000000001,-4.18 a6.72557,6.72557 0 0 1 1.81982,-4.8100000000000005 a9.202210000000001,9.202210000000001 0 0 1 4.99024,-2.59 zm11.25,21.28 a8.5575,8.5575 0 0 1 -4.74024,2.47 V75.70000183105469 a13.23964,13.23964 0 0 1 4.74024,2.37 a4.65775,4.65775 0 0 1 1.62988,3.7 A6.8039000000000005,6.8039000000000005 0 0 1 267.40172188964846,86.47000183105467 z" fill="#2ea1fb" id="svg_8" class=""/><path d="M73.50167188964843,259.2505018310547 a98.108,98.108 0 0 1 -39.12217,-14.792159999999999 A95.527,95.527 0 0 1 18.205561889648436,231.23000183105466 c-4.82786,-4.92434 -9.4465,-10.52122 -11.83781,-17.0792 a25.299,25.299 0 0 1 0.3312400000000001,-18.7693 a24.33352,24.33352 0 0 1 13.16876,-13.12553 c5.98961,-2.38861 13.22619,-2.64412 19.05541,-0.028210000000000006 a17.08926,17.08926 0 0 1 6.96433,5.6058400000000015 a11.43493,11.43493 0 0 1 1.8103,3.75816 a7.67372,7.67372 0 0 1 0.09036000000000004,3.75911 a9.01634,9.01634 0 0 1 -4.77388,5.723 a24.06819,24.06819 0 0 1 -8.1521,2.48626 c-2.86013,0.3900000000000001 -6.96868,0.7448500000000002 -9.268,-1.5510000000000002 a4.66934,4.66934 0 0 1 -1.09261,-1.6107900000000004 a3.1144,3.1144 0 0 1 -0.17238,-1.45807 c-0.033540000000000014,0.21724000000000007 0.13872,-0.4723600000000001 0.12891000000000005,-0.4448600000000002 c-0.03636,0.10194 -0.19384000000000007,0.3504000000000001 0.030000000000000013,-0.03135000000000002 a3.39683,3.39683 0 0 1 0.23311,-0.3630000000000001 c-0.07600000000000003,0.09827000000000008 -0.24291000000000007,0.26227 0.05515000000000002,-0.01912 a1.9618600000000002,1.9618600000000002 0 0 1 0.91427,-0.56441 c0.13841000000000006,-0.040320000000000016 0.27883,-0.07242000000000003 0.41763,-0.11033000000000003 c0.3527700000000001,-0.09637000000000005 -0.3516100000000001,0.005260000000000002 0.009300000000000006,-0.006310000000000002 c0.13927,-0.004460000000000002 0.28021,-0.0010000000000000005 0.4190000000000001,-0.007260000000000003 c0.3540000000000001,-0.015910000000000007 -0.3492700000000002,-0.09655000000000004 -0.010000000000000004,-0.011260000000000006 c0.13173,0.03312000000000002 0.26222,0.06547000000000003 0.3920000000000001,0.10635 c0.2820800000000001,0.08887000000000003 -0.1997400000000001,-0.20693000000000006 -0.008590000000000004,0.01446 c0.22400000000000006,0.25945 -0.23521000000000006,-0.25235 0.019400000000000008,-0.0011900000000000005 a4.6244,4.6244 0 0 1 0.3576700000000001,0.3943100000000002 a2.35924,2.35924 0 0 0 3.315,0 a2.39935,2.39935 0 0 0 0,-3.315 c-2.3114,-2.8653500000000003 -6.87707,-2.15735 -9.21528,0.2643600000000001 c-2.982,3.08848 -1.80111,7.98318 1.09954,10.678 c3.2837,3.05076 7.9344,3.26284 12.15834,2.7511400000000004 a29.817,29.817 0 0 0 10.26918,-2.902 a14.39829,14.39829 0 0 0 7.024,-7.58817 a13.17381,13.17381 0 0 0 -1.05641,-10.76889 c-3.7293000000000003,-7.01118 -11.45152,-10.60575 -19.08437,-11.22837 a29.81221,29.81221 0 0 0 -21.81879,7.16278 a30.15422,30.15422 0 0 0 -9.88822,20.075 c-0.6662600000000002,7.996 2.43608,15.76128 6.95922,22.21432 a84.62746,84.62746 0 0 0 16.77944,17.3533 a102.47323,102.47323 0 0 0 42.812,20.19071 q2.79237,0.5768500000000002 5.61474,0.9875799999999998 a2.42141,2.42141 0 0 0 2.88342,-1.63715 a2.36125,2.36125 0 0 0 -1.6371600000000002,-2.88343 z" fill="#3f3d56" id="svg_10" class=""/><path d="M296.88696188964843,157.37425183105466 q-30.6631,-0.4327800000000001 -61.133,1.55634 c-6.9433,0.4533800000000001 -12.95072,2.90742 -12.95072,7.03206 c0,3.44855 5.95964,7.48858 12.95072,7.032 q30.45443,-1.9887000000000001 61.133,-1.55633 C313.5608718896484,171.67367183105466 313.55104188964845,157.60941183105467 296.88696188964843,157.37425183105466 z" fill="#ccc" id="svg_11" class=""/><path d="M266.67325188964844,170.74175183105467 c-2.20923,0 -54.10571,-0.08252000000000004 -54.10571,-7.251 c0,-7.168 51.89648,-7.25049 54.10571,-7.25049 s54.10571,0.08252000000000004 54.10571,7.25049 C320.7789618896485,170.65923183105468 268.8824818896485,170.74175183105467 266.67325188964844,170.74175183105467 zm-52.07642,-7.251 c1.4201700000000002,2.17334 20.49634,5.251 52.07642,5.251 s50.656,-3.07764 52.07641,-5.251 c-1.42016,-2.17285 -20.49633,-5.25049 -52.07641,-5.25049 S216.01700188964844,161.31792183105466 214.59683188964846,163.4907718310547 z" fill="#3f3d56" id="svg_12" class=""/><path d="M431.32711188964845,359.19209183105465 c11.48831,-0.3190000000000001 25.78612,-0.7177600000000002 36.801,-8.76407 a28.26188,28.26188 0 0 0 11.12052,-21.10332 c0.22483000000000006,-6.35459 -2.071,-11.90149 -6.46488,-15.61408 c-5.75306,-4.86143 -14.154,-6.00169 -23.20738,-3.3410800000000003 l9.38,-68.548 l-6.88568,-0.94343 L441.04356188964846,321.4650018310547 l5.75009,-2.63856 c6.6663700000000015,-3.05766 15.817309999999999,-4.61365 21.50378,0.1917400000000001 a12.21541,12.21541 0 0 1 4.00576,10.06213 a21.36089,21.36089 0 0 1 -8.275,15.7346 c-8.5719,6.26126 -19.96858,7.0689400000000004 -32.89451,7.43036 z" fill="#3f3d56" id="svg_13" class=""/><rect x="374.8565979003906" y="247.73321533203125" width="37.43223190307617" height="6.950170040130615" fill="#3f3d56" id="svg_14" class=""/></g></svg>