<svg xmlns="http://www.w3.org/2000/svg" data-name="Layer 1" width="393" height="389"><rect id="backgroundrect" width="100%" height="100%" x="0" y="0" fill="none" stroke="none" class="" style=""/><g class="currentLayer" style=""><title>Layer 1</title><path d="M27.27047833984375,79.35926661693571 a4.59436,4.59436 0 0 0 -3.18166,5.65638 l76.71619,273.97819 a4.59431,4.59431 0 0 0 5.65637,3.1816 l282.81481,-79.19052 a4.59437,4.59437 0 0 0 3.18162,-5.65631 L315.74161833984374,3.3503966169357398 a4.59434,4.59434 0 0 0 -5.6563300000000005,-3.18168 z" fill="#e6e6e6" id="svg_1" class=""/><path d="M110.01545833984375,349.2381266169357 l269.50474,-75.46358 L306.5308883398437,13.106236616935718 L37.02614833984376,88.56981661693573 z" fill="#fff" id="svg_2" class=""/><path d="M72.65820833984372,123.37653661693571 c-1.7980900000000002,0.5034799999999996 -2.53942,3.49029 -1.6524900000000002,6.6578 s3.07152,5.335 4.86961,4.83156 L198.79244833984376,100.44807661693574 c1.7980800000000001,-0.5034799999999996 2.53941,-3.4903 1.6524800000000002,-6.6578 s-3.07151,-5.335 -4.8696,-4.83156 z" fill="#e6e6e6" id="svg_3" class=""/><path d="M82.55701833984375,158.72839661693575 c-1.7980800000000001,0.5034799999999996 -2.53941,3.49029 -1.6524800000000002,6.6578 s3.07151,5.335 4.8696,4.83156 l122.91712,-34.41782 c1.7980900000000002,-0.5034799999999996 2.53942,-3.49029 1.6524900000000002,-6.6578 s-3.07152,-5.335 -4.86961,-4.83156 z" fill="#e6e6e6" id="svg_4" class=""/><path d="M92.34173833984374,193.67275661693571 c-1.7980900000000002,0.5034799999999996 -2.53942,3.49026 -1.6524900000000002,6.6578 s3.07152,5.335 4.86961,4.83156 L218.47597833984378,170.74429661693574 c1.7980800000000001,-0.5034799999999996 2.53942,-3.49027 1.6524800000000002,-6.6578 s-3.07151,-5.335 -4.8696,-4.83156 z" fill="#e6e6e6" id="svg_5" class=""/><path d="M102.24054833984377,229.02457661693575 c-1.7980900000000002,0.5034799999999996 -2.53943,3.49027 -1.6524900000000002,6.6578 s3.07151,5.335 4.8696,4.83156 l122.91712,-34.41782 c1.7980900000000002,-0.5034799999999996 2.53943,-3.49026 1.6524900000000002,-6.6578 s-3.07152,-5.335 -4.86961,-4.83156 z" fill="#e6e6e6" id="svg_6" class=""/><path d="M257.9544483398438,71.89974661693572 a5.9656400000000005,5.9656400000000005 0 1 0 3.21712,11.48936 l22.97873,-6.43423 a5.9656400000000005,5.9656400000000005 0 0 0 -3.21712,-11.489370000000001 z" fill="#e6e6e6" id="svg_7" class=""/><path d="M267.6613983398438,106.56639661693572 a5.9656400000000005,5.9656400000000005 0 1 0 3.21712,11.48936 l22.97872,-6.43423 a5.9656400000000005,5.9656400000000005 0 0 0 -3.21712,-11.489370000000001 z" fill="#e6e6e6" id="svg_8" class=""/><path d="M277.3683383398437,141.23297661693573 a5.96563,5.96563 0 1 0 3.21711,11.48936 l22.97873,-6.43423 a5.9656400000000005,5.9656400000000005 0 0 0 -3.21712,-11.489370000000001 z" fill="#e6e6e6" id="svg_9" class=""/><path d="M287.07527833984375,175.89960661693573 a5.9656400000000005,5.9656400000000005 0 0 0 3.21712,11.48936 l22.97873,-6.43424 a5.9656400000000005,5.9656400000000005 0 0 0 -3.21712,-11.48936 z" fill="#e6e6e6" id="svg_10" class=""/><path d="M296.3493883398437,235.98873661693574 a7.60151,7.60151 0 1 0 4.0993,14.63992 l29.27976,-8.19858 a7.6015,7.6015 0 0 0 -4.09929,-14.63992 h0 z" fill="#2ea1fb" id="svg_11" class=""/><rect x="0" y="387.3798226118088" width="225" height="2" transform="rotate(-15.64268970489502 -382.9447937011719,-72.49716186523423) " fill="#e6e6e6" id="svg_12" class=""/></g></svg>