<svg xmlns="http://www.w3.org/2000/svg" xmlns:xlink="http://www.w3.org/1999/xlink" data-name="Layer 1" width="833" height="673"><rect id="backgroundrect" width="100%" height="100%" x="0" y="0" fill="none" stroke="none" class="" style=""/><defs><linearGradient id="b6a338e9-6675-4055-aeec-b883651a73ae" x1="0.4998791813850403" y1="0.9999386668205261" x2="0.4998791813850403" y2="-0.00007384989294223487"><stop offset="0" stop-color="gray" stop-opacity="0.25"/><stop offset="0.54" stop-color="gray" stop-opacity="0.12"/><stop offset="1" stop-color="gray" stop-opacity="0.1"/></linearGradient></defs><title>wallet</title><g class="currentLayer" style=""><title>Layer 1</title><path d="M352.15000091552736,427.23 c6.63,0.8500000000000002 13.51,1.3900000000000001 19.86,-0.6700000000000004 c1,-0.3100000000000001 2.1,-1 2,-2 a2.42,2.42 0 0 0 -0.45,-1 a61.78,61.78 0 0 1 -6,-11.43 a1,1 0 0 0 -0.3700000000000001,-0.52 a0.9400000000000002,0.9400000000000002 0 0 0 -0.6400000000000002,0 c-2.93,0.77 -5.46,2.66 -8.37,3.47 a11.9,11.9 0 0 1 -4.5600000000000005,0.3400000000000002 c-1.32,-0.15000000000000005 -3.12,-1.24 -4.32,-1.1 C349.98000091552734,418.68999999999994 351.64000091552737,422.77 352.15000091552736,427.23 z" fill="#2ea1fb" id="svg_4" class=""/><path d="M477.54000091552734,416.15999999999997 c4.37,-3 8.9,-6.15 11.48,-10.78 a1.87,1.87 0 0 0 0.3100000000000001,-0.93 a1.92,1.92 0 0 0 -0.3700000000000001,-0.9 a37.16,37.16 0 0 0 -9.33,-10.07 a27.21,27.21 0 0 0 -5.2,4.8 c-1.1,1.1600000000000001 -4.14,3 -4.17,4.77 c0,1 1.1600000000000001,2.16 1.7000000000000002,3 c0.7300000000000002,1.08 1.42,2.18 2.08,3.3 C474.42000091552734,409.9 477.89000091552737,415.93999999999994 477.54000091552734,416.15999999999997 z" fill="#2ea1fb" id="svg_5" class=""/><path d="M378.14000091552737,440.62 a4.45,4.45 0 0 1 -0.8,2.9 a3.93,3.93 0 0 1 -1.6800000000000004,1 c-9.27,3.3200000000000003 -20,-0.8200000000000002 -29.25,2.45 c-1.9,0.6700000000000004 -3.7,1.6400000000000001 -5.61,2.2800000000000002 a30.52,30.52 0 0 1 -7,1.24 c-3.27,0.3100000000000001 -6.5600000000000005,0.51 -9.84,0.6000000000000002 a23.66,23.66 0 0 1 -7.42,-0.6500000000000002 a8.91,8.91 0 0 1 -5.69,-4.51 a4.33,4.33 0 0 1 -0.28,-3.21 a3.46,3.46 0 0 1 0.6100000000000002,-1 a8.77,8.77 0 0 1 2.18,-1.77 l3.41,-2.2 a22.89,22.89 0 0 1 5.17,-2.74 c1.35,-0.4400000000000001 2.7800000000000002,-0.6300000000000002 4.15,-1 c4.79,-1.4 8.45,-5.2 11.85,-8.85 l4.6400000000000015,-4.95 a4.67,4.67 0 0 1 1.61,-1.29 a4.46,4.46 0 0 1 2,-0.19000000000000006 a26.74,26.74 0 0 1 12.65,4.24 a16.39,16.39 0 0 0 3.12,1.84 c2.72,1.06 6.21,0.26 8.72,-1.08 c1.19,-0.6400000000000002 0.93,-1 1.4300000000000002,-2.14 s1.7200000000000002,-1.87 2.7800000000000002,-0.8300000000000002 a2.94,2.94 0 0 1 0.6600000000000003,1.26 c1,3.3 0.6200000000000002,6.85 0.6200000000000002,10.31 a4.54,4.54 0 0 0 0.2,1.6 a9.05,9.05 0 0 0 0.91,1.48 a3.37,3.37 0 0 1 0.19000000000000006,0.3800000000000001 A10.17,10.17 0 0 1 378.14000091552737,440.62 z" fill="#514e7f" id="svg_6" class=""/><path d="M378.14000091552737,440.62 a4.45,4.45 0 0 1 -0.8,2.9 a3.93,3.93 0 0 1 -1.6800000000000004,1 c-9.27,3.3200000000000003 -20,-0.8200000000000002 -29.25,2.45 c-1.9,0.6700000000000004 -3.7,1.6400000000000001 -5.61,2.2800000000000002 a30.52,30.52 0 0 1 -7,1.24 c-3.27,0.3100000000000001 -6.5600000000000005,0.51 -9.84,0.6000000000000002 a23.66,23.66 0 0 1 -7.42,-0.6500000000000002 a8.91,8.91 0 0 1 -5.69,-4.51 a4.33,4.33 0 0 1 -0.28,-3.21 a3.46,3.46 0 0 1 0.6100000000000002,-1 c0.54,1.13 0.93,2.63 1.27,3.17 a6.49,6.49 0 0 0 4.34,3.13 a10.78,10.78 0 0 0 4,-0.51 c8.4,-2.08 17.33,-2.11 25.4,-5.26 c2.77,-1.09 5.41,-2.54 8.32,-3.2 s6,-0.4800000000000001 9,-0.7300000000000002 c4.74,-0.3800000000000001 9.33,-1.81 14,-2.56 A10.17,10.17 0 0 1 378.14000091552737,440.62 z" fill="#464353" id="svg_7" class=""/><path d="M498.77000091552736,415.54999999999995 c-0.4400000000000001,3.52 -2.67,6.55 -5.12,9.12 s-5.22,4.88 -7.17,7.84 c-2.4,3.67 -3.48,8.22 -6.6,11.32 a18.1,18.1 0 0 1 -4,2.85 a27.91,27.91 0 0 1 -5.15,2.37 c-4.66,1.49 -9.68,1.15 -14.55,0.79 a13.09,13.09 0 0 1 -4.62,-0.8900000000000002 A13.92,13.92 0 0 1 449.64000091552737,447.77 a9.17,9.17 0 0 1 -3,-3 a3,3 0 0 1 -0.2900000000000001,-2.18 a5.12,5.12 0 0 1 1.3900000000000001,-2.12 a33,33 0 0 1 3.52,-3.17 a21.07,21.07 0 0 0 4.58,-4 a12.92,12.92 0 0 0 1.77,-4 a35.48,35.48 0 0 0 1.29,-7.65 a24.25,24.25 0 0 1 0.53,-5.12 c0.7400000000000002,-2.64 2.7,-5 2.48,-7.73 a1.9300000000000002,1.9300000000000002 0 0 1 0.1,-1.17 a1.6300000000000003,1.6300000000000003 0 0 1 0.92,-0.5700000000000002 a16.3,16.3 0 0 1 4.78,-1.11 a5.57,5.57 0 0 1 4.44,1.7400000000000002 c0.6800000000000004,0.8200000000000002 1.13,2 2.13,2.3200000000000003 a3.38,3.38 0 0 0 1.52,0.06000000000000002 c2.46,-0.25 5.06,-0.56 7,-2.15 a8.73,8.73 0 0 0 2.9,-6.37 c0,-0.91 -0.4100000000000001,-1.86 1,-2 c1.06,-0.14 1.9,1 2.44,1.7000000000000002 c1.9500000000000002,2.6100000000000003 3.95,5.34 4.68,8.52 a2.51,2.51 0 0 1 0.8900000000000002,-0.17 a3.87,3.87 0 0 1 3.19,1.6300000000000003 A6.35,6.35 0 0 1 498.77000091552736,415.54999999999995 z" fill="#514e7f" id="svg_8" class=""/><path d="M498.77000091552736,415.54999999999995 c-0.4400000000000001,3.52 -2.67,6.55 -5.12,9.12 s-5.22,4.88 -7.17,7.84 c-2.4,3.67 -3.48,8.22 -6.6,11.32 a18.1,18.1 0 0 1 -4,2.85 a27.91,27.91 0 0 1 -5.15,2.37 c-4.66,1.49 -9.68,1.15 -14.55,0.79 a13.09,13.09 0 0 1 -4.62,-0.8900000000000002 A13.92,13.92 0 0 1 449.64000091552737,447.77 a9.17,9.17 0 0 1 -3,-3 a7.3100000000000005,7.3100000000000005 0 0 1 3,-0.7200000000000002 c2.16,0.12000000000000002 3.74,2.16 5.8100000000000005,2.79 c2.95,0.8900000000000002 5.8900000000000015,-1.19 8.88,-1.9 c1.9500000000000002,-0.46 4,-0.3400000000000002 5.93,-1 a14.66,14.66 0 0 0 4.39,-2.66 a22.35,22.35 0 0 0 4.69,-4.52 a29.05,29.05 0 0 0 2.75,-5.49 a78.5,78.5 0 0 1 5.5600000000000005,-10.64 a7.52,7.52 0 0 1 1.13,-1.48 c0.4700000000000001,-0.4300000000000001 1,-0.7300000000000002 1.53,-1.11 c2,-1.51 2.83,-4 3.5300000000000002,-6.44 a11.27,11.27 0 0 1 0.79,-2.15 a3.87,3.87 0 0 1 3.19,1.6300000000000003 A6.35,6.35 0 0 1 498.77000091552736,415.54999999999995 z" fill="#464353" id="svg_9" class=""/><path d="M404.16000091552735,202.56 " fill="#464353" id="svg_15" class=""/><path d="M335.7500009155273,255.51 c1.32,5 -0.5900000000000002,10.26 -2.15,15.21 a117.88,117.88 0 0 0 -4.78,22.9 a19.82,19.82 0 0 1 -1.18,5.79 c-0.7400000000000002,1.6700000000000004 -2,3.08 -2.8600000000000003,4.67 c-2.36,4.18 -2.3,9.28 -1.79,14.06 c0.3400000000000002,3.15 0.8500000000000002,6.29 1.48,9.39 c0.77,3.79 1.7200000000000002,7.75 0.6100000000000002,11.45 c1.86,-0.4100000000000001 3.12,2 3,3.89 s-0.7300000000000002,4 0.18000000000000005,5.63 c2.3,0.8400000000000002 2.3200000000000003,4 2.25,6.45 a54.25,54.25 0 0 0 1.6,12.6 q5.22,25.1 11.08,50.06 c8.45,2.62 18.32,5.35 26.38,1.7200000000000002 c1.5,-0.6700000000000004 3,-1.7400000000000002 3.34,-3.36 a5.86,5.86 0 0 0 -0.3200000000000001,-2.58 l-3.8200000000000003,-13.9 c-0.93,-3.36 -1.86,-6.83 -1.37,-10.28 c0.3700000000000001,-2.5700000000000003 1.49,-5.34 0.23,-7.61 c-0.4300000000000001,-0.78 -1.11,-1.3900000000000001 -1.61,-2.13 c-2,-2.93 -0.9500000000000002,-6.85 -0.79,-10.4 a8.24,8.24 0 0 0 -0.16000000000000006,-2.38 a11.88,11.88 0 0 0 -1.1400000000000001,-2.6100000000000003 a39.92,39.92 0 0 1 -4.4,-19.86 a4.91,4.91 0 0 0 -0.3500000000000001,-2.59 a8.38,8.38 0 0 1 -0.6500000000000002,-1.06 a2.9,2.9 0 0 1 0.21000000000000005,-1.9100000000000001 a17.5,17.5 0 0 1 -3.08,-3 a4.3100000000000005,4.3100000000000005 0 0 0 0.7400000000000002,-6.74 a2.25,2.25 0 0 0 1.07,-3.87 c-0.4900000000000001,-0.3400000000000002 -1.1400000000000001,-0.4900000000000001 -1.49,-1 c-0.54,-0.7400000000000002 -0.1,-1.77 0.3400000000000002,-2.56 l2.33,-4.21 c1.7400000000000002,-3.13 2.13,-7 4,-10 c2.68,-4.37 4.43,-9.24 6.16,-14.06 L375.54000091552734,274.65 l4.53,3.93 a14.32,14.32 0 0 1 3.72,4.24 a18.3,18.3 0 0 1 1.21,5.08 c1.6600000000000001,10.08 8,18.82 10.35,28.75 c0.52,2.21 0.8700000000000002,4.53 2.14,6.42 a14,14 0 0 1 1.22,1.84 a9.76,9.76 0 0 1 0.51,3.05 a14.23,14.23 0 0 0 6,10.2 c2.23,1.53 5,2.58 6.21,5 a9.32,9.32 0 0 0 1,2.13 c1.08,1.3 3.41,1.45 3.87,3.08 c0.26,0.91 -0.22000000000000006,2 0.2900000000000001,2.8 a2.6500000000000004,2.6500000000000004 0 0 0 1.11,0.8300000000000002 l6.51,3.25 c7.28,3.64 11,12 16.37,18.09 a39,39 0 0 1 4.9,6.48 c2.3200000000000003,4.15 3.39,9.36 7.3100000000000005,12 a11.06,11.06 0 0 1 2.84,2.11 c1.23,1.62 0.78,3.89 0.8900000000000002,5.93 s1.6700000000000004,4.47 3.6100000000000003,3.85 a14.23,14.23 0 0 0 0,7.55 a38,38 0 0 0 23.06,-9.34 c1.9,-1.6600000000000001 3.73,-3.7800000000000002 3.75,-6.3 a2.26,2.26 0 0 0 -0.28,-1.25 a3.5700000000000003,3.5700000000000003 0 0 0 -1.47,-1.11 c-6.09,-3.3 -7.92,-10.95 -11,-17.16 c-2.6900000000000004,-5.48 -6.67,-10.2 -10,-15.29 c-7.24,-10.95 -12.18,-24.2 -23.13,-31.43 c-2.41,-1.59 -5.21,-3 -6.42,-5.63 c-0.6700000000000004,-1.47 -0.7500000000000002,-3.15 -1.28,-4.67 s-1.8,-3 -3.42,-3 c0.9,-2.2 0.7200000000000002,-4.88 0.78,-7.26 a9.17,9.17 0 0 0 -0.3600000000000001,-3.13 a15.23,15.23 0 0 0 -1.61,-3.1 a29.74,29.74 0 0 1 -4.12,-16 c0.08000000000000003,-2.89 0.5900000000000002,-5.87 -0.28,-8.63 c-0.4400000000000001,-1.3900000000000001 -1.21,-2.66 -1.7400000000000002,-4 a25,25 0 0 1 -1.25,-7.52 l-0.6000000000000002,-9.61 a47.28,47.28 0 0 0 -1.24,-9.5 c-2,-7.46 -4,-38.71 -10.85,-42.23 s-18.62,20.53 -26.33,21 a34.29,34.29 0 0 0 -10,1.9300000000000002 c-5.13,1.92 -9.43,5.5 -13.620000000000001,9 l-14.18,11.91 C341.54000091552734,251.40999999999997 339.0600009155273,253.76999999999998 335.7500009155273,255.51 z" fill="#464353" id="svg_17" class=""/><path d="M559.4500009155273,281.58 V269.15999999999997 a34.48,34.48 0 0 0 -34.48,-34.47 H34.48000091552734 a34.48,34.48 0 0 0 -34.48,34.47 v22.9 z" fill="#33323d" id="svg_22" class=""/><path d="M170.93000091552733,220.13 s-1.4,86.86 14,115.44 s22,152.91 22,152.91 s161.44,16.7 273.94,-20 S832.7500009155274,416.77 832.7500009155274,416.77 L792.4100009155273,144.88 S593.1200009155274,132.1 479.7500009155274,186.16999999999996 S170.93000091552733,220.13 170.93000091552733,220.13 z" fill="#8dd070" id="svg_23" class=""/><path d="M170.93000091552733,220.13 s-1.4,86.86 14,115.44 s22,152.91 22,152.91 s161.44,16.7 273.94,-20 S832.7500009155274,416.77 832.7500009155274,416.77 L792.4100009155273,144.88 S593.1200009155274,132.1 479.7500009155274,186.16999999999996 S170.93000091552733,220.13 170.93000091552733,220.13 z" opacity="0.1" id="svg_24" class=""/><path d="M206.66000091552735,251.85999999999996 s-5.05,71.67 7.62,94.57 S227.54000091552734,471.55999999999995 227.54000091552734,471.55999999999995 s145.29,6.74 248.64,-28.44 s320.53,-58 320.53,-58 L772.0300009155274,162.76999999999998 s-179.7,-1.85 -284.58,47.67 S206.66000091552735,251.85999999999996 206.66000091552735,251.85999999999996 z" fill="#8dd070" id="svg_25" class=""/><ellipse cx="426.2500305175781" cy="403.1699862670898" rx="37.720001220703125" ry="80.9000015258789" transform="rotate(-7.099999904632568 -202.0899963378906,-37.13999557495107) " opacity="0.1" id="svg_26" class=""/><path d="M683.1500009155274,12.429999999999978 S489.54000091552734,61.42999999999998 398.2400009155274,147.68 S114.74000091552733,274.77 114.74000091552733,274.77 s25.32,83.09 48.74,105.57 s67.84,138.8 67.84,138.8 s158.77,-33.66 254.57,-103.14 S804.9600009155273,258.77 804.9600009155273,258.77 z" opacity="0.2" id="svg_27" class=""/><path d="M111.83000091552736,262.33 S137.14000091552737,345.43 160.54000091552734,367.90999999999997 s67.84,138.79 67.84,138.79 S387.17000091552734,473.04999999999995 482.9800009155274,403.56999999999994 S802.0400009155273,246.37 802.0400009155273,246.37 L680.2300009155274,-1.421085556223495e-14 s-193.6,49 -284.9,135.25 S111.83000091552736,262.33 111.83000091552736,262.33 z" fill="#8dd070" id="svg_28" class=""/><path d="M111.83000091552736,262.33 S137.14000091552737,345.43 160.54000091552734,367.90999999999997 s67.84,138.79 67.84,138.79 S387.17000091552734,473.04999999999995 482.9800009155274,403.56999999999994 S802.0400009155273,246.37 802.0400009155273,246.37 L680.2300009155274,-1.421085556223495e-14 s-193.6,49 -284.9,135.25 S111.83000091552736,262.33 111.83000091552736,262.33 z" opacity="0.1" id="svg_29" class=""/><path d="M155.54000091552734,281.57 s17.19,69.77 36.28,87.67 s51,115 51,115 s140.34,-38.18 227.91,-103.38 S758.0200009155274,227.39 758.0200009155274,227.39 L666.3100009155273,23.269999999999982 S494.7200009155273,76.63999999999999 410.0900009155273,155.95999999999998 S155.54000091552734,281.57 155.54000091552734,281.57 z" fill="#8dd070" id="svg_30" class=""/><ellipse cx="325.989990234375" cy="549.0300326538086" rx="37.720001220703125" ry="80.9000015258789" transform="rotate(-24.969999313354492 -259.8200073242187,165.02000427246094) " opacity="0.1" id="svg_31" class=""/><path d="M572.6900009155273,293.77 v345 a29.83,29.83 0 0 1 -29.84,29.83 h-513 a29.83,29.83 0 0 1 -29.82,-29.83 V258.99 c14.7,5.46 14.7,5.46 29.82,5 h513 A29.84,29.84 0 0 1 572.6900009155273,293.77 z" opacity="0.1" id="svg_32" class=""/><path d="M572.6900009155273,298.15999999999997 v345 a29.84,29.84 0 0 1 -29.84,29.83 h-513 a29.83,29.83 0 0 1 -29.82,-29.83 V263.37 c14.7,5.45 14.7,5.45 29.82,5 h513 A29.84,29.84 0 0 1 572.6900009155273,298.15999999999997 z" fill="#504f60" id="svg_33" class=""/><path d="M571.2300009155274,425.71000000000004 V536.04 h-107 a55.17,55.17 0 0 1 0,-110.33 z" opacity="0.1" id="svg_34" class=""/><path d="M572.6900009155273,422.77 V533.12 h-107 a55.17,55.17 0 0 1 0,-110.33 z" fill="#33323d" id="svg_35" class=""/><circle cx="470.82000732421875" cy="480.8800082397461" r="21.510000228881836" opacity="0.1" id="svg_36" class=""/><circle cx="472.280029296875" cy="477.9599948120117" r="21.510000228881836" fill="#2ea1fb" id="svg_37" class=""/></g></svg>